<svg width="1200" height="800" viewBox="0 0 1200 800" fill="none" xmlns="http://www.w3.org/2000/svg">
  <rect width="1200" height="800" rx="48" fill="url(#bg)"/>
  <circle cx="1020" cy="152" r="102" fill="url(#glow)" fill-opacity="0.75"/>
  <rect x="146" y="144" width="344" height="460" rx="44" fill="rgba(255,255,255,0.92)"/>
  <rect x="192" y="196" width="252" height="252" rx="30" fill="#0F172A"/>
  <circle cx="318" cy="322" r="84" fill="#ECFEFF"/>
  <path d="M318 322L374 272" stroke="#22D3EE" stroke-width="18" stroke-linecap="round"/>
  <circle cx="318" cy="322" r="18" fill="#22D3EE"/>
  <rect x="224" y="494" width="188" height="30" rx="15" fill="#D7F4FB"/>
  <rect x="246" y="546" width="144" height="24" rx="12" fill="#E9F7FA"/>
  <path d="M652 250C681 221 728 221 757 250L789 282L717 354L685 322C656 293 656 246 685 217L652 250Z" fill="#E2F8FC"/>
  <path d="M737 250L886 399" stroke="#F8FBFC" stroke-width="34" stroke-linecap="round"/>
  <path d="M819 331L936 214" stroke="#22D3EE" stroke-width="30" stroke-linecap="round"/>
  <path d="M902 248L970 180" stroke="#CFFAFE" stroke-width="18" stroke-linecap="round"/>
  <rect x="694" y="420" width="266" height="154" rx="34" fill="rgba(255,255,255,0.92)"/>
  <path d="M748 540C748 495.817 783.817 460 828 460H855C899.183 460 935 495.817 935 540V540H748V540Z" fill="#0F172A"/>
  <rect x="812" y="492" width="58" height="48" rx="12" fill="#22D3EE"/>
  <defs>
    <linearGradient id="bg" x1="96" y1="48" x2="1116" y2="732" gradientUnits="userSpaceOnUse">
      <stop stop-color="#0F172A"/>
      <stop offset="1" stop-color="#155E75"/>
    </linearGradient>
    <radialGradient id="glow" cx="0" cy="0" r="1" gradientUnits="userSpaceOnUse" gradientTransform="translate(1020 152) rotate(90) scale(102)">
      <stop stop-color="white"/>
      <stop offset="1" stop-color="white" stop-opacity="0"/>
    </radialGradient>
  </defs>
</svg>
