<svg width="1200" height="800" viewBox="0 0 1200 800" fill="none" xmlns="http://www.w3.org/2000/svg">
  <rect width="1200" height="800" rx="48" fill="url(#bg)"/>
  <circle cx="934" cy="168" r="116" fill="url(#glow)" fill-opacity="0.7"/>
  <rect x="118" y="118" width="520" height="564" rx="40" fill="rgba(255,255,255,0.9)"/>
  <rect x="160" y="168" width="436" height="56" rx="18" fill="#D7F4FB"/>
  <rect x="160" y="256" width="288" height="28" rx="14" fill="#D7F4FB"/>
  <rect x="160" y="312" width="334" height="28" rx="14" fill="#E9F7FA"/>
  <rect x="160" y="368" width="244" height="28" rx="14" fill="#E9F7FA"/>
  <rect x="160" y="462" width="276" height="132" rx="26" fill="#F4FBFD"/>
  <circle cx="804" cy="430" r="168" fill="#0F172A"/>
  <circle cx="804" cy="430" r="112" fill="#F8FBFC"/>
  <path d="M804 430L904 360" stroke="#22D3EE" stroke-width="22" stroke-linecap="round"/>
  <circle cx="804" cy="430" r="26" fill="#22D3EE"/>
  <path d="M804 296V328" stroke="#9DB7C5" stroke-width="14" stroke-linecap="round"/>
  <path d="M804 532V564" stroke="#9DB7C5" stroke-width="14" stroke-linecap="round"/>
  <path d="M670 430H702" stroke="#9DB7C5" stroke-width="14" stroke-linecap="round"/>
  <path d="M906 430H938" stroke="#9DB7C5" stroke-width="14" stroke-linecap="round"/>
  <rect x="930" y="500" width="136" height="136" rx="30" fill="rgba(255,255,255,0.92)"/>
  <path d="M977 536H1019" stroke="#0F172A" stroke-width="18" stroke-linecap="round"/>
  <path d="M998 515V557" stroke="#0F172A" stroke-width="18" stroke-linecap="round"/>
  <circle cx="998" cy="580" r="18" fill="#22D3EE"/>
  <defs>
    <linearGradient id="bg" x1="72" y1="56" x2="1124" y2="744" gradientUnits="userSpaceOnUse">
      <stop stop-color="#0F172A"/>
      <stop offset="1" stop-color="#0891B2"/>
    </linearGradient>
    <radialGradient id="glow" cx="0" cy="0" r="1" gradientUnits="userSpaceOnUse" gradientTransform="translate(934 168) rotate(90) scale(116)">
      <stop stop-color="white"/>
      <stop offset="1" stop-color="white" stop-opacity="0"/>
    </radialGradient>
  </defs>
</svg>
